<?xml version="1.0" standalone="yes"?>
<svg xmlns="http://www.w3.org/2000/svg" width="2077" height="438">
<path style="fill:#ffffff; stroke:none;" d="M0 0L0 14L1 14C2.12517 6.91592 6.74649 1.80783 14 1L0 0z"/>
<path style="fill:#11294b; stroke:none;" d="M406 406L30 406L30 30L186 30C199.7 30 230.84 36.3987 234.28 18C238.766 -5.98697 200.677 0 187 0L60 0C45.6449 0 20.9157 -4.72577 8.00463 2.16437C-0.34457 6.62003 0 16.8557 0 25L0 85L0 342L0 411C0 419.576 -0.574241 431.06 9.00386 434.991C16.9996 438.272 29.4482 436 38 436L104 436L331 436L403 436C411.279 436 424.213 438.495 430.945 432.721C441.066 424.042 436 397.252 436 385L436 251C436 237.937 442.284 205.339 425 201.394C400.745 195.859 406 232.247 406 246L406 406z"/>
<path style="fill:#ffffff; stroke:none;" d="M221 0L221 1C236.73 2.75189 238.984 25.932 223 29.6057C204.267 33.9111 180.245 30 161 30L30 30L30 406L406 406L406 248C406 234.861 400.438 200.076 422 201.145C442.337 202.153 436 236.761 436 250L436 381C436 393.481 440.965 419.987 432.721 429.981C426.404 437.641 416.898 436 408 436L347 436L95 436L25 436C14.2589 436 3.347 435.958 1 423L0 423L0 438L616 438L616 437C599.289 433.628 603 413.671 603 401L603 288C589.006 288 566.778 292.202 554.004 286.08C542.092 280.372 542.754 263.975 555 259.009C565.241 254.857 582.014 258 593 258C621.18 258 649.872 256.419 678 258.043C693.373 258.931 696.995 278.484 683.999 285.91C672.285 292.605 648.276 288 635 288L635 401C635 414.263 638.453 433.839 621 437L621 438L734 438L734 437C716.005 433.741 720 412.569 720 399L720 309C720 296.761 716.918 279.632 720.854 268C725.291 254.887 742.933 253.307 749.991 265.004C754.824 273.015 752 287.91 752 297L752 332L836 332L836 297C836 287.713 833.308 273.301 838.089 265.004C844.624 253.665 862.015 254.666 866.852 267C871.27 278.264 868 295.983 868 308L868 400C868 413.418 871.73 433.789 854 437L854 438L1370 438L1370 437C1353.14 433.947 1356 415.939 1356 403L1356 298C1356 285.765 1351.84 265.182 1366 259.228C1374.84 255.513 1388.53 258 1398 258C1425.58 258 1458.76 253.231 1482 271.518C1503.54 288.471 1508.89 323.442 1492.96 346C1485.17 357.029 1474.83 362.466 1463 368C1470.31 385.275 1488.12 397.988 1497.86 414C1503.73 423.654 1498.69 434.211 1488 437L1488 438L1711 438L1711 437C1688.47 432.919 1703.07 408.173 1708.78 396C1725.52 360.281 1740.86 323.891 1757.23 288C1763.22 274.875 1768.25 255.181 1786 255.181C1803.54 255.181 1808.85 274.846 1814.58 288C1830.17 323.844 1846.95 359.173 1862.58 395C1867.95 407.322 1883.02 431.764 1861 437L1861 438L1915 438L1915 437C1896.54 433.275 1902 405.746 1902 392L1902 311C1902 298.193 1900.05 283.606 1902.33 271C1904.66 258.065 1920.64 253.03 1930.96 260.109C1936.76 264.087 1939.98 271.229 1943.69 277C1949.04 285.316 1954.21 293.757 1959.67 302C1969.71 317.161 1978.97 332.837 1989 348C1996.77 341.575 2001.69 330.463 2007.05 322C2019.04 303.106 2030.25 282.835 2043.76 265.004C2052.26 253.791 2069.3 254.113 2076 267L2077 267L2077 0L221 0z"/>
<path style="fill:#f15f3f; stroke:none;" d="M406 30L406 85L406 120C406 130.253 403.2 145.662 408.164 154.996C413.568 165.155 429.272 165.391 434.543 154.996C438.965 146.277 436 130.623 436 121L436 40C436 30.0593 439.596 11.8445 431.671 4.39429C424.24 -2.59036 405.53 1 396 1L315 1C305.881 1 290.235 -1.99442 282.004 2.17902C271.698 7.40436 271.581 23.5379 282.004 28.6821C291.153 33.1976 307.928 30 318 30L352 30L406 30M635 1.42438C618.269 3.62766 603.107 7.61591 589 17.348C544.588 47.9872 538.843 115.815 573.3 156C598.32 185.179 644.939 194.131 680 179.127C692.712 173.688 726.624 154.681 705.956 138.43C692.642 127.961 677.84 146.762 666 151.547C642.114 161.202 613.585 153.903 598.156 133C568.545 92.8838 593.513 28.6763 647 31.0394C657.393 31.4985 667.327 35.5361 676 41.054C684.118 46.2186 693.068 53.7178 702.985 47.7716C716.891 39.4328 709.35 23.8669 699 17.0038C680.742 4.89627 656.924 -1.46274 635 1.42438M817 1.42438C800.31 3.64255 785.078 7.68066 771 17.3472C721.492 51.3423 719.296 127.588 765 165.674C785.966 183.146 814.597 188.27 841 184.711C853.031 183.09 864.539 178.774 875 172.715C945.162 132.081 926.051 20.6338 848 3.42438C838.102 1.24191 827.091 0.083252 817 1.42438M967 4.52933C954.9 7.32663 954.001 18.5724 954 29L954 99L954 153C954 160.719 952.801 170.348 957.804 176.895C963.673 184.576 974.506 183 983 183C1004.53 183 1026.89 184.761 1048 179.764C1113.56 164.241 1138.03 81.441 1092.71 32.0394C1068.39 5.52557 1033.31 4 1000 4C989.573 4 977.18 2.17593 967 4.52933M1183 154L1183 107L1252 107C1261.57 107 1272.69 106.197 1273.61 94C1274.32 84.5396 1266.8 78.4715 1258 78.0401C1233.13 76.8215 1207.9 78 1183 78L1183 33C1212.31 33 1242.81 35.4527 1272 32.9059C1281.26 32.0982 1287.12 22.8351 1284.35 14C1280.59 2.03391 1266.81 4 1257 4L1184 4C1174.83 4 1162.35 1.81659 1155.34 9.21375C1147.13 17.8814 1151 37.9684 1151 49L1151 133C1151 144.88 1148.3 160.64 1151.99 172C1155.9 184.012 1168.81 183 1179 183L1256 183C1265.77 183 1282.13 185.543 1285.57 173C1287.78 164.912 1283.73 155.713 1275 154.225C1265.18 152.551 1253.96 154 1244 154L1183 154z"/>
<path style="fill:#ffffff; stroke:none;" d="M816 31.4391C752.78 41.3901 748.895 138.939 811 154.102C817.834 155.77 825.005 156.574 832 155.572C841.907 154.152 851.804 151.142 860 145.215C909.729 109.248 878.916 21.5358 816 31.4391M987 34L987 153C1010.21 153 1035.11 156.325 1056 144.123C1090.32 124.083 1090.75 67.4821 1059 45.0432C1038 30.2023 1011.29 34 987 34z"/>
<path style="fill:#f15f3f; stroke:none;" d="M300 69.4283C268.413 73.9533 246.497 103.788 225.004 125.015C216.54 133.374 208.964 152.5 227 155.67C237.776 157.563 245.223 147.777 252 141C269.715 123.285 296.319 83.2511 325 103.789C337.504 112.742 343.448 130.034 335.468 144C324.922 162.454 302.783 177.78 288.015 193C279.368 201.913 277.185 220.337 294 221.609C307.377 222.62 321.499 201.501 330 193C344.744 178.256 361.457 165.303 366.497 144C376.033 103.688 341.851 63.4329 300 69.4283z"/>
<path style="fill:#f1c515; stroke:none;" d="M219 198L218 198C212.211 189.782 200.616 175.764 191 172.265C179.369 168.032 169.805 178.725 172.394 190C174.239 198.03 183.458 204.435 189 210C191.154 212.163 195.726 215.447 194.793 219C193.628 223.439 187.136 227.864 184 231L159 256C154.633 260.368 149.049 264.723 147.533 271C144.522 283.473 157.62 293.915 169 287.142C176.905 282.437 183.523 273.477 190 267C199.055 257.945 210.647 249.437 218 239L219 239C224.575 246.915 235.804 260.594 245 264.106C256.277 268.414 267.507 258.754 264.442 247C261.777 236.779 247.338 224.874 239 219L276 182C281.336 176.664 288.644 171.105 289.362 163C290.425 151.003 277.029 143.285 267 149.728C259.51 154.54 253.274 162.726 247 169C237.717 178.283 226.564 187.262 219 198z"/>
<path style="fill:#f15f3f; stroke:none;" d="M138 215.534C126.968 218.162 116.742 233.258 109 241C93.1478 256.852 73.6714 271.675 69.4645 295C61.3074 340.226 103.832 378.808 148 364.656C173.776 356.397 198.455 327.034 215.812 307C224.633 296.819 221.171 280.749 206 281.019C196.934 281.181 190.907 290.093 185 296C168.605 312.395 143.783 348.245 117 336.096C100.79 328.742 92.0473 309.059 100.905 293C112.695 271.625 138 258.417 152.581 239C160.72 228.162 151.828 212.241 138 215.534z"/>
<path style="fill:#11294b; stroke:none;" d="M1782 255.465C1766.43 258.268 1762.5 275.447 1756.77 288C1741.47 321.543 1726.32 355.206 1711.58 389C1706.66 400.27 1691.36 421.14 1701.56 432.786C1708.5 440.717 1721.73 438.568 1726.93 429.996C1732.87 420.2 1734.82 402.118 1743.5 394.603C1747.46 391.172 1757.08 393 1762 393L1810 393C1814.73 393 1823.68 391.295 1827.5 394.603C1839.75 405.207 1837.53 443.416 1862 437.287C1883.93 431.793 1867.45 404.919 1862.14 393C1846.09 356.96 1829.91 320.968 1813.69 285C1807.29 270.789 1801.57 251.942 1782 255.465M752 362L836 362L836 406C836 412.521 834.685 420.728 836.653 427C840.65 439.746 859.272 441.314 865.911 429.985C872.212 419.23 868 397.215 868 385C868 347.613 872.505 307.063 867.815 270C865.906 254.917 842.788 251.67 837.148 266.001C834.601 272.473 836 281.162 836 288L836 332L752 332L752 287C752 280.581 753.449 272.043 750.991 266.001C744.935 251.12 721.435 255.347 720.094 271C716.947 307.747 720 346.104 720 383C720 395.866 715.91 417.289 721.573 428.996C727.366 440.974 746.024 440.247 750.991 428C753.444 421.95 752 413.425 752 407L752 362M1934 319L1935 319C1943.81 337.612 1958.24 354.863 1969.67 372C1973.98 378.474 1978.44 387.538 1987 388.782C1997.04 390.243 2002.14 382.288 2007 375C2018.84 357.242 2036.44 337.938 2044 318L2045 318L2045 370L2045 401C2045 410.153 2042.66 422.972 2048.13 430.907C2054.82 440.605 2072.24 439.859 2076.3 427.996C2080.85 414.702 2077 394.049 2077 380L2077 305C2077 293.418 2079.2 279.293 2076.61 268C2074.29 257.945 2063.75 256.232 2055 257.105C2043.94 258.21 2038.73 271.856 2033.33 280C2018.64 302.196 2006.27 327.736 1989 348C1981.99 332.995 1971.28 318.925 1962.31 305C1951.94 288.908 1937.45 249.985 1913 257.653C1897.78 262.428 1902 283.852 1902 296L1902 387C1902 399.017 1898.73 416.735 1903.15 428C1908.23 440.954 1927.34 440.592 1932.52 427.999C1935.13 421.638 1934 413.735 1934 407L1934 368L1934 319M603 288L603 403C603 415.58 599.563 437.083 618 437.736C637.498 438.427 635 417.153 635 404L635 288C648.456 288 673.153 292.738 684.996 285.91C697.366 278.779 693.579 258.885 679 258.043C650.21 256.381 620.843 258 592 258C581.026 258 564.226 254.848 554.001 259.009C542.617 263.642 541.964 280.708 553.015 286.08C565.913 292.351 588.829 288 603 288M945 407L945 361L1015 361C1024.61 360.999 1035.29 358.922 1035.74 347C1036.16 335.569 1026.49 332.004 1017 332L945 332L945 287C974.02 287 1004.09 289.29 1033 286.907C1042.55 286.119 1049.14 277.477 1046.43 268C1042.92 255.759 1028.79 258 1019 258L947 258C937.99 258 925.225 255.502 918.108 262.214C909.061 270.747 913 290.652 913 302L913 386C913 397.921 910.341 413.551 913.8 425C917.647 437.733 930.365 436 941 436L1018 436C1027.99 436 1044.6 439.1 1047.61 426C1050.28 414.377 1041.72 407.513 1031 407.039C1002.45 405.778 973.577 407 945 407M1170 258.653C1158.77 262.175 1159 273.417 1159 283L1159 351L1159 405C1159 412.975 1157.34 422.975 1162.13 429.906C1167.82 438.122 1179.34 436 1188 436C1210.92 436 1235.83 438.837 1258 431.975C1319.27 413.009 1341.25 335.335 1298.71 287.004C1274.02 258.956 1238.31 258 1204 258C1193.72 258 1179.84 255.567 1170 258.653M1388 374C1397.92 374 1416.11 370.478 1424.99 375.028C1430.19 377.695 1433.84 384.541 1437.4 389C1445.58 399.248 1453.62 409.63 1461.65 420C1465.74 425.284 1469.97 432.353 1476 435.558C1486.79 441.283 1502.35 434.53 1500.68 421C1499.44 410.836 1489.32 401.682 1483.2 394C1476.42 385.488 1468.77 377.234 1463 368C1501.92 354.834 1518 300.783 1484 272.326C1462.47 254.304 1432.05 258 1406 258C1393.89 258 1366.83 252.847 1358.97 264.094C1353.67 271.677 1356 284.214 1356 293L1356 361L1356 413C1356 420.687 1355.06 429.204 1362.04 434.348C1370.54 440.602 1384.03 437.569 1387.35 427C1392.06 411.974 1388 389.757 1388 374M1572 407L1572 361L1642 361C1651.46 360.996 1661.48 358.479 1661.87 347C1662.14 338.848 1656 332.505 1648 332.043C1622.85 330.591 1597.2 332 1572 332L1572 287C1600.69 287 1630.42 289.263 1659 286.907C1668.98 286.084 1675.64 276.757 1672.3 267.004C1668.41 255.648 1654.39 258 1645 258L1572 258C1563.39 258 1550.88 255.549 1544.21 262.214C1535.29 271.131 1539 290.519 1539 302L1539 387C1539 398.746 1536.16 414.879 1540.26 426C1544.57 437.662 1556.98 436 1567 436L1645 436C1655.06 436 1670.67 438.882 1673.93 426C1676.69 415.089 1668.3 407.508 1658 407.039C1629.46 405.742 1600.57 407 1572 407z"/>
<path style="fill:#ffffff; stroke:none;" d="M1191 287L1191 407C1214.11 407 1239.17 410.187 1260 398.124C1295.42 377.61 1295.72 321.158 1263 298.043C1242.35 283.459 1214.85 287 1191 287M1388 287L1388 346C1408.21 346 1436.76 351.095 1455 340.826C1472.93 330.731 1474.36 303.022 1456 292.363C1437.71 281.744 1408.34 287 1388 287M1785 295L1755 365L1816 365C1806.81 342.61 1798.49 315.057 1785 295M2044 318C2033.4 337.042 2019.76 354.862 2007.67 373C2003.1 379.856 1997.76 389.807 1988 388.746C1979.13 387.782 1974.06 377.587 1969.67 371C1958.11 353.668 1946.65 336.269 1935 319L1934 319L1934 408C1934 419.8 1934.74 434.33 1920 437L1920 438L2059 438L2059 437C2043.23 433.948 2045 417.355 2045 405L2045 345C2045 336.993 2047.1 325.399 2044 318M752 362C752 381.932 754.889 404.327 751.786 424C750.754 430.545 745.31 435.727 739 437L739 438L849 438L849 437C842.69 435.727 837.246 430.545 836.214 424C833.111 404.327 836 381.932 836 362L752 362M1388 374C1388 390.711 1395.99 431.522 1375 437L1375 438L1482 438C1465.1 428.438 1453.91 409.309 1442.12 394C1437.74 388.315 1432.4 378.402 1425.96 375.028C1417 370.335 1398.07 374 1388 374M1716 437L1716 438L1856 438C1837.64 427.611 1841.72 407.727 1828.19 394.603C1824.48 391.007 1813.82 393 1809 393L1762 393C1757.15 393 1747.64 391.188 1743.5 394.028C1729.82 403.405 1735.79 433.008 1716 437M2076 428C2073.13 432.863 2069.61 435.913 2064 437L2064 438L2077 438L2076 428z"/>
</svg>
